<svg width="893" height="1069" viewBox="0 0 893 1069" fill="none" xmlns="http://www.w3.org/2000/svg">
<path opacity="0.4545" d="M534.47 879.619C725.091 879.619 879.621 725.09 879.621 534.468C879.621 343.846 725.091 189.316 534.47 189.316C343.848 189.316 189.318 343.846 189.318 534.468C189.318 725.09 343.848 879.619 534.47 879.619Z" stroke="white" stroke-opacity="0.27" stroke-miterlimit="10"/>
<path opacity="0.3636" d="M534.445 926.692C751.067 926.692 926.674 751.086 926.674 534.464C926.674 317.842 751.067 142.236 534.445 142.236C317.824 142.236 142.217 317.842 142.217 534.464C142.217 751.086 317.824 926.692 534.445 926.692Z" stroke="white" stroke-opacity="0.27" stroke-miterlimit="10"/>
<path opacity="0.2727" d="M534.51 973.768C777.131 973.768 973.814 777.084 973.814 534.463C973.814 291.841 777.131 95.1577 534.51 95.1577C291.888 95.1577 95.2046 291.841 95.2046 534.463C95.2046 777.084 291.888 973.768 534.51 973.768Z" stroke="white" stroke-opacity="0.27" stroke-miterlimit="10"/>
<path opacity="0.1818" d="M534.482 1016.2C803.103 1016.2 1020.86 798.435 1020.86 529.814C1020.86 261.193 803.103 43.4329 534.482 43.4329C265.861 43.4329 48.1009 261.193 48.1009 529.814C48.1009 798.435 265.861 1016.2 534.482 1016.2Z" stroke="white" stroke-opacity="0.27" stroke-miterlimit="10"/>
<path opacity="0.0909091" d="M534.458 1067.92C829.079 1067.92 1067.92 829.079 1067.92 534.458C1067.92 239.837 829.079 1 534.458 1C239.837 1 1 239.837 1 534.458C1 829.079 239.837 1067.92 534.458 1067.92Z" stroke="white" stroke-opacity="0.27" stroke-miterlimit="10"/>
<path d="M788.702 171.938C787.031 176.741 781.849 179.245 777.044 177.573C772.238 175.901 769.731 170.72 771.403 165.918C773.074 161.115 778.256 158.61 783.061 160.283C787.706 161.899 790.374 167.135 788.702 171.938Z" fill="#20A4F3"/>
<path d="M216.841 760.551C215.867 763.352 212.845 764.812 210.044 763.837C207.242 762.862 205.78 759.841 206.754 757.041C207.729 754.24 210.75 752.78 213.552 753.755C216.261 754.698 217.816 757.751 216.841 760.551Z" fill="white"/>
<path d="M553.977 930.926C551.592 937.779 544.199 941.352 537.342 938.966C530.485 936.58 526.908 929.188 529.293 922.335C531.678 915.482 539.071 911.909 545.928 914.295C552.556 916.602 556.362 924.073 553.977 930.926Z" fill="#FFBD70"/>
<path d="M847.67 293.741C847.051 296.05 844.709 297.401 842.399 296.782C840.09 296.163 838.737 293.822 839.356 291.514C839.974 289.205 842.317 287.854 844.626 288.473C846.858 289.071 848.288 291.433 847.67 293.741Z" fill="#8DD9B9"/>
<path d="M236.342 292.111C243.472 291.684 248.904 285.56 248.474 278.433C248.045 271.306 241.917 265.874 234.787 266.301C227.657 266.728 222.225 272.852 222.654 279.979C223.084 287.106 229.212 292.537 236.342 292.111Z" fill="#F85B6E"/>
</svg>
