<svg width="24" height="24" viewBox="0 0 24 24" fill="none" xmlns="http://www.w3.org/2000/svg">
<path fill-rule="evenodd" clip-rule="evenodd" d="M12 4C16.42 4 20 7.67055 20 12.2024C20 15.8319 17.71 18.8975 14.53 19.9843C14.13 20.0561 13.98 19.81 13.98 19.5947C13.98 19.3999 13.99 18.754 13.99 18.067C16 18.4464 16.52 17.5646 16.68 17.1033C16.77 16.8674 17.16 16.1395 17.5 15.9447C17.78 15.7909 18.18 15.4115 17.51 15.4013C16.88 15.391 16.43 15.9959 16.28 16.242C15.56 17.4826 14.41 17.134 13.95 16.9187C13.88 16.3855 13.67 16.0267 13.44 15.8216C15.22 15.6166 17.08 14.9091 17.08 11.7717C17.08 10.8797 16.77 10.1415 16.26 9.56735C16.34 9.36229 16.62 8.52155 16.18 7.39372C16.18 7.39372 15.51 7.17841 13.98 8.23446C13.34 8.04991 12.66 7.95763 11.98 7.95763C11.3 7.95763 10.62 8.04991 9.98 8.23446C8.45 7.16816 7.78 7.39372 7.78 7.39372C7.34 8.52155 7.62 9.36229 7.7 9.56735C7.19 10.1415 6.88 10.8695 6.88 11.7717C6.88 14.9194 8.75 15.6166 10.53 15.8216C10.24 16.078 9.99 16.5701 9.99 17.3391C9.99 18.4361 10 19.3179 10 19.5947C10 19.81 9.85 20.0664 9.45 19.9843C6.29 18.8975 4 15.8216 4 12.2024C4 7.67055 7.58 4 12 4Z" fill="white"/>
</svg>
