<svg width="24" height="24" viewBox="0 0 24 24" fill="none" xmlns="http://www.w3.org/2000/svg">
<path fill-rule="evenodd" clip-rule="evenodd" d="M12 4C7.58172 4 4 7.58172 4 12C4 16.4183 7.58172 20 12 20C16.4183 20 20 16.4183 20 12C20 7.58172 16.4183 4 12 4ZM10.0431 9.92771V16H8.11381V9.92771H10.0431ZM10.1702 8.04917C10.1702 8.63186 9.75145 9.09815 9.07869 9.09815H9.06611C8.41866 9.09815 8 8.6319 8 8.04917C8 7.45334 8.43154 7 9.09146 7C9.75148 7 10.1577 7.45334 10.1702 8.04917ZM13.0401 16H11.1109L11.1109 15.9999C11.1109 15.9999 11.1363 10.4974 11.1109 9.92761H13.0402V10.7874C13.2966 10.3736 13.7555 9.78516 14.7789 9.78516C16.0482 9.78516 17 10.653 17 12.5182V16H15.0709V12.7514C15.0709 11.9351 14.7916 11.3783 14.0935 11.3783C13.5605 11.3783 13.2431 11.7538 13.1036 12.1164C13.0527 12.2462 13.0401 12.4275 13.0401 12.6089V16Z" fill="white"/>
</svg>
