<svg width="24" height="24" viewBox="0 0 24 24" fill="none" xmlns="http://www.w3.org/2000/svg">
<path fill-rule="evenodd" clip-rule="evenodd" d="M12 4C7.58172 4 4 7.58172 4 12C4 16.4183 7.58172 20 12 20C16.4183 20 20 16.4183 20 12C20 7.58172 16.4183 4 12 4ZM17 8.94702C17 8.94701 17 8.947 17 8.947H17C17 8.947 17 8.94701 17 8.94702ZM17 8.94702C16.6689 9.10766 16.313 9.21618 15.9395 9.26501C16.3207 9.01507 16.6135 8.61929 16.7514 8.14766C16.3946 8.37914 15.9994 8.54718 15.5788 8.63775C15.242 8.24521 14.7621 8 14.2311 8C13.2114 8 12.3846 8.90422 12.3846 10.0196C12.3846 10.1778 12.4009 10.332 12.4324 10.4798C10.8978 10.3956 9.53728 9.59153 8.62657 8.36964C8.46763 8.66792 8.37655 9.01482 8.37655 9.38496C8.37655 10.0857 8.70253 10.7038 9.19798 11.066C8.89531 11.0555 8.61059 10.9646 8.36165 10.8134C8.36144 10.8218 8.36144 10.8303 8.36144 10.8388C8.36144 11.8173 8.99792 12.6335 9.84262 12.8191C9.68768 12.8653 9.52456 12.89 9.35617 12.89C9.23719 12.89 9.12154 12.8773 9.00877 12.8537C9.24376 13.6561 9.92564 14.24 10.7337 14.2562C10.1017 14.7979 9.30559 15.1208 8.44046 15.1208C8.29142 15.1208 8.14445 15.1112 8 15.0926C8.81716 15.6656 9.78772 16 10.8305 16C14.2268 16 16.084 12.9226 16.084 10.2537C16.084 10.1661 16.0822 10.0791 16.0787 9.99238C16.4394 9.7077 16.7524 9.35204 17 8.94702Z" fill="white"/>
</svg>
